HIERARCHY
ROOT joint_Root
{
	OFFSET 0.0 0.0 0.0
	CHANNELS 6 Xposition Yposition Zposition Zrotation Xrotation Yrotation 
	JOINT Hips
	{
		OFFSET 4.5925 91.4895 -427.239
		CHANNELS 6 Xposition Yposition Zposition Zrotation Xrotation Yrotation 
		JOINT Spine
		{
			OFFSET 15.7357 0.0 0.0
			CHANNELS 6 Xposition Yposition Zposition Zrotation Xrotation Yrotation 
			JOINT Chest
			{
				OFFSET 8.98455 -0.406207 0.0
				CHANNELS 6 Xposition Yposition Zposition Zrotation Xrotation Yrotation 
				JOINT Neck
				{
					OFFSET 16.3773 0.0 0.0
					CHANNELS 6 Xposition Yposition Zposition Zrotation Xrotation Yrotation 
					JOINT Head
					{
						OFFSET 6.45672 0.0 0.0
						CHANNELS 6 Xposition Yposition Zposition Zrotation Xrotation Yrotation 
						End Site
						{
							OFFSET 0.0 0.0 0.0
						}
					}
				}
				JOINT Shoulder_L
				{
					OFFSET 12.9942 -0.242716 4.98039
					CHANNELS 6 Xposition Yposition Zposition Zrotation Xrotation Yrotation 
					JOINT UpperArm_L
					{
						OFFSET 5.34809 0.0 0.0
						CHANNELS 6 Xposition Yposition Zposition Zrotation Xrotation Yrotation 
						JOINT LowerArm_L
						{
							OFFSET 24.3286 1.87007e-05 0.0
							CHANNELS 6 Xposition Yposition Zposition Zrotation Xrotation Yrotation 
							JOINT Hand_L
							{
								OFFSET 22.2916 0.0 0.0
								CHANNELS 6 Xposition Yposition Zposition Zrotation Xrotation Yrotation 
								End Site
								{
									OFFSET 0.0 0.0 0.0
								}
							}
						}
					}
				}
				JOINT Shoulder_R
				{
					OFFSET 12.9945 -0.242716 -4.98039
					CHANNELS 6 Xposition Yposition Zposition Zrotation Xrotation Yrotation 
					JOINT UpperArm_R
					{
						OFFSET -5.34813 0.0 0.0
						CHANNELS 6 Xposition Yposition Zposition Zrotation Xrotation Yrotation 
						JOINT LowerArm_R
						{
							OFFSET -24.3289 0.000322201 0.0
							CHANNELS 6 Xposition Yposition Zposition Zrotation Xrotation Yrotation 
							JOINT Hand_R
							{
								OFFSET -22.2915 -0.000108084 0.0
								CHANNELS 6 Xposition Yposition Zposition Zrotation Xrotation Yrotation 
								End Site
								{
									OFFSET 0.0 0.0 0.0
								}
							}
						}
					}
				}
			}
		}
		JOINT UpperLeg_L
		{
			OFFSET -2.19248 -6.46944 0.0
			CHANNELS 6 Xposition Yposition Zposition Zrotation Xrotation Yrotation 
			JOINT LowerLeg_L
			{
				OFFSET 39.0811 0.0 -1.23785e-05
				CHANNELS 6 Xposition Yposition Zposition Zrotation Xrotation Yrotation 
				JOINT Foot_L
				{
					OFFSET 40.9854 0.0 -1.26872e-05
					CHANNELS 6 Xposition Yposition Zposition Zrotation Xrotation Yrotation 
					JOINT Toes_L
					{
						OFFSET 11.7543 0.0 0.0
						CHANNELS 6 Xposition Yposition Zposition Zrotation Xrotation Yrotation 
						End Site
						{
							OFFSET 0.0 0.0 0.0
						}
					}
				}
			}
		}
		JOINT UpperLeg_R
		{
			OFFSET -2.19251 6.46944 0.0
			CHANNELS 6 Xposition Yposition Zposition Zrotation Xrotation Yrotation 
			JOINT LowerLeg_R
			{
				OFFSET -39.0811 -0.00228153 -0.0401928
				CHANNELS 6 Xposition Yposition Zposition Zrotation Xrotation Yrotation 
				JOINT Foot_R
				{
					OFFSET -40.9854 0.0 0.0
					CHANNELS 6 Xposition Yposition Zposition Zrotation Xrotation Yrotation 
					JOINT Toes_R
					{
						OFFSET -11.7543 0.0 0.0
						CHANNELS 6 Xposition Yposition Zposition Zrotation Xrotation Yrotation 
						End Site
						{
							OFFSET 0.0 0.0 0.0
						}
					}
				}
			}
		}
	}
}
MOTION
Frames:	7
Frame Time:	0.0333333
0.000000 0.000000 0.000000 0.000000 0.000000 -0.000000 148.354000 89.445700 124.390000 92.991600 -11.651000 8.073980 15.735700 0.000005 -0.000001 83.117500 83.213500 -82.835300 8.984550 -0.406207 -0.000000 5.714980 -1.627530 0.645008 16.377300 -0.000001 -0.000001 1.336390 -6.423270 0.548026 6.456720 -0.000001 -0.000000 -2.911060 -6.834120 -2.948690 12.994200 -0.242716 4.980390 -91.110200 3.585930 -72.786000 5.348090 -0.000007 -0.000001 -58.630600 34.762400 -22.846300 24.328600 0.000019 0.000005 8.017440 17.986200 -24.518800 22.291600 -0.000001 0.000005 12.881400 5.235860 1.803500 12.994500 -0.242716 -4.980390 88.368000 8.242350 -78.759700 -5.348130 -0.000001 -0.000004 -65.337100 25.524500 -10.919800 -24.328900 0.000322 -0.000009 2.046400 8.547240 -13.532800 -22.291500 -0.000108 -0.000004 13.124800 5.323770 -0.604884 -2.192480 -6.469440 -0.000000 -177.900000 -11.615800 -6.394880 39.081100 -0.000007 -0.000012 0.007594 -0.010019 37.158100 40.985400 -0.000006 -0.000013 2.443340 5.060810 -71.884900 11.754300 -0.000000 0.000003 -1.658640 -2.335530 -16.712200 -2.192510 6.469440 -0.000001 172.354000 3.577890 168.024000 -39.081100 -0.002282 -0.040193 0.216690 -0.077684 70.012300 -40.985400 0.000008 0.000006 0.426912 8.551920 -47.178000 -11.754300 -0.000006 -0.000006 -0.015348 -0.139995 -22.285400
0.000000 0.000000 0.000000 0.000000 0.000000 -0.000000 147.489000 90.261000 126.625000 93.141700 -10.122200 7.390890 15.735700 0.000005 -0.000001 79.991400 83.381300 -79.739300 8.984550 -0.406207 -0.000000 5.278390 -2.301040 0.609800 16.377300 -0.000001 -0.000001 1.179350 -7.229730 0.756594 6.456720 -0.000001 -0.000000 -3.037890 -7.736500 -0.629036 12.994200 -0.242716 4.980390 -90.939500 3.148060 -73.374800 5.348090 -0.000007 -0.000001 -53.461000 35.068800 -30.494600 24.328600 0.000019 0.000005 9.435990 18.823900 -27.250600 22.291600 -0.000001 0.000005 12.828900 5.240300 1.687690 12.994500 -0.242716 -4.980390 88.236000 8.561160 -78.311300 -5.348130 -0.000001 -0.000004 -66.614700 23.788600 -6.907630 -24.328900 0.000322 -0.000009 1.711940 9.476460 -10.294600 -22.291500 -0.000108 -0.000004 13.970600 5.297750 0.132307 -2.192480 -6.469440 -0.000000 -177.434000 -11.559400 -4.151330 39.081100 -0.000007 -0.000012 -0.005363 0.007938 34.045900 40.985400 -0.000006 -0.000013 1.939070 6.850760 -69.813700 11.754300 -0.000000 0.000003 -1.457290 -1.980880 -17.263300 -2.192510 6.469440 -0.000001 173.259000 8.711150 164.964000 -39.081100 -0.002282 -0.040193 0.217622 -0.086566 68.021200 -40.985400 0.000008 0.000006 0.235833 6.343520 -53.375900 -11.754300 -0.000006 -0.000006 -0.015894 -0.143375 -22.424200
0.000000 0.000000 0.000000 0.000000 0.000000 -0.000000 146.531000 90.790200 128.741000 93.582900 -8.959460 6.853310 15.735700 0.000005 -0.000001 77.482600 83.452900 -77.364000 8.984550 -0.406207 -0.000000 5.024750 -2.835060 0.361417 16.377300 -0.000001 -0.000001 0.951167 -7.966430 0.938361 6.456720 -0.000001 -0.000000 -3.371170 -8.756060 1.749030 12.994200 -0.242716 4.980390 -90.703800 2.416200 -73.754600 5.348090 -0.000007 -0.000001 -49.959400 33.530300 -36.879100 24.328600 0.000019 0.000005 10.457100 18.814900 -29.781400 22.291600 -0.000001 0.000005 13.041100 5.237700 1.755520 12.994500 -0.242716 -4.980390 88.153900 8.679890 -77.944400 -5.348130 -0.000001 -0.000004 -68.020900 20.969300 -2.815700 -24.328900 0.000322 -0.000009 1.470510 9.559100 -8.793140 -22.291500 -0.000108 -0.000004 15.036200 5.291590 0.307828 -2.192480 -6.469440 -0.000000 -176.923000 -12.081800 -2.291930 39.081100 -0.000007 -0.000012 -0.015620 0.025153 31.841900 40.985400 -0.000006 -0.000013 1.191020 9.054480 -68.103100 11.754300 -0.000000 0.000003 -1.142770 -1.481090 -17.366300 -2.192510 6.469440 -0.000001 174.898000 13.594700 162.263000 -39.081100 -0.002282 -0.040193 0.184332 -0.088235 64.031200 -40.985400 0.000008 0.000006 3.468090 2.105390 -57.495800 -11.754300 -0.000006 -0.000006 -0.016132 -0.144833 -22.484100
0.000000 0.000000 0.000000 0.000000 0.000000 -0.000000 145.506000 91.026800 130.831000 94.183000 -7.986700 6.424140 15.735700 0.000005 -0.000001 74.631100 83.474500 -74.687600 8.984550 -0.406207 -0.000000 4.823550 -3.450880 0.032489 16.377300 -0.000001 -0.000001 0.645781 -8.641220 1.062960 6.456720 -0.000001 -0.000000 -3.578970 -9.811240 3.906630 12.994200 -0.242716 4.980390 -90.472500 1.634590 -73.876300 5.348090 -0.000007 -0.000001 -48.168100 31.004300 -41.440600 24.328600 0.000019 0.000005 10.989300 17.832300 -32.380200 22.291600 -0.000001 0.000005 13.427200 5.232520 1.890130 12.994500 -0.242716 -4.980390 88.103500 8.750550 -77.720700 -5.348130 -0.000001 -0.000004 -69.058900 18.865700 1.009760 -24.328900 0.000322 -0.000009 1.266610 8.540750 -8.474860 -22.291500 -0.000108 -0.000004 15.179100 5.299880 0.075786 -2.192480 -6.469440 -0.000000 -176.532000 -12.420500 -0.803617 39.081100 -0.000007 -0.000012 -0.021527 0.036496 30.534800 40.985400 -0.000006 -0.000013 0.504712 10.846000 -66.855800 11.754300 -0.000000 0.000003 -0.918994 -1.136940 -17.577800 -2.192510 6.469440 -0.000001 176.809000 17.864000 160.201000 -39.081100 -0.002282 -0.040193 0.138792 -0.084798 57.976100 -40.985400 0.000008 0.000006 5.635720 -0.917508 -60.723300 -11.754300 -0.000006 -0.000006 -0.015701 -0.142188 -22.375500
0.000000 0.000000 0.000000 0.000000 0.000000 -0.000000 144.388000 90.965700 133.023000 94.927700 -7.149390 6.240130 15.735700 0.000005 -0.000001 71.799500 83.457700 -72.018600 8.984550 -0.406207 -0.000000 4.665760 -4.073550 -0.271905 16.377300 -0.000001 -0.000001 0.306573 -9.390030 1.144700 6.456720 -0.000001 -0.000000 -3.757140 -10.860200 5.575710 12.994200 -0.242716 4.980390 -90.318300 1.112780 -74.036700 5.348090 -0.000007 -0.000001 -47.758700 28.206800 -43.991700 24.328600 0.000019 0.000005 11.476400 16.608700 -35.386900 22.291600 -0.000001 0.000005 14.305000 5.231440 1.917670 12.994500 -0.242716 -4.980390 88.052800 8.756110 -77.410200 -5.348130 -0.000001 -0.000004 -69.745300 18.026500 4.422280 -24.328900 0.000322 -0.000009 1.154590 7.431230 -8.864950 -22.291500 -0.000108 -0.000004 14.205500 5.304560 -0.057469 -2.192480 -6.469440 -0.000000 -176.223000 -12.442100 0.383256 39.081100 -0.000007 -0.000012 -0.028275 0.048102 30.447600 40.985400 -0.000006 -0.000013 -0.240228 12.166800 -66.166100 11.754300 -0.000000 0.000003 -0.063650 -0.108543 -18.159500 -2.192510 6.469440 -0.000001 178.687000 21.764900 159.059000 -39.081100 -0.002282 -0.040193 0.096408 -0.076732 50.524000 -40.985400 0.000008 0.000006 6.069230 -0.760956 -63.073100 -11.754300 -0.000006 -0.000006 -0.015936 -0.143636 -22.435000
0.000000 0.000000 0.000000 0.000000 0.000000 -0.000000 143.155000 90.669000 135.382000 95.864500 -6.710750 6.350830 15.735700 0.000005 -0.000001 69.623600 83.422000 -70.010600 8.984550 -0.406207 -0.000000 4.563220 -4.561880 -0.591521 16.377300 -0.000001 -0.000001 0.129833 -10.038400 1.240620 6.456720 -0.000001 -0.000000 -4.124620 -11.818400 6.488700 12.994200 -0.242716 4.980390 -90.201600 0.709869 -74.149200 5.348090 -0.000007 -0.000001 -48.114200 25.747100 -45.037700 24.328600 0.000019 0.000005 11.712400 15.078700 -38.553500 22.291600 -0.000001 0.000005 15.544900 5.234900 1.828660 12.994500 -0.242716 -4.980390 88.061900 8.541790 -77.165800 -5.348130 -0.000001 -0.000004 -70.478000 18.058900 7.022200 -24.328900 0.000322 -0.000009 1.141770 7.285800 -8.939280 -22.291500 -0.000108 -0.000004 13.093900 5.314910 -0.350516 -2.192480 -6.469440 -0.000000 -176.020000 -12.246900 1.517250 39.081100 -0.000007 -0.000012 -0.035686 0.058758 31.272700 40.985400 -0.000006 -0.000013 -1.130940 12.959400 -65.757300 11.754300 -0.000000 0.000003 -0.008026 -0.088252 -20.170500 -2.192510 6.469440 -0.000001 -179.346000 25.801100 158.715000 -39.081100 -0.002282 -0.040193 0.058524 -0.060918 42.207400 -40.985400 0.000008 0.000006 5.186120 0.182884 -64.282600 -11.754300 -0.000006 -0.000006 -0.017516 -0.153117 -22.824600
0.000000 0.000000 0.000000 0.000000 0.000000 -0.000000 141.716000 90.177500 137.958000 96.816000 -6.845050 6.696430 15.735700 0.000005 -0.000001 68.546700 83.432200 -69.072600 8.984550 -0.406207 -0.000000 4.450360 -4.780870 -0.865146 16.377300 -0.000001 -0.000001 0.211481 -10.575100 1.237150 6.456720 -0.000001 -0.000000 -4.570300 -12.736100 7.018230 12.994200 -0.242716 4.980390 -90.135600 0.474029 -74.039600 5.348090 -0.000007 -0.000001 -48.640100 24.010500 -45.179800 24.328600 0.000019 0.000005 11.373700 13.269000 -41.233800 22.291600 -0.000001 0.000005 17.050100 5.249000 1.461240 12.994500 -0.242716 -4.980390 88.069900 8.409570 -77.024200 -5.348130 -0.000001 -0.000004 -71.120700 18.663300 8.903110 -24.328900 0.000322 -0.000009 1.157350 7.542430 -8.757350 -22.291500 -0.000108 -0.000004 12.602500 5.317310 -0.417841 -2.192480 -6.469440 -0.000000 -175.562000 -12.209400 2.579350 39.081100 -0.000007 -0.000012 -0.043128 0.066225 33.074200 40.985400 -0.000006 -0.000013 -2.182370 13.749900 -65.306000 11.754300 -0.000000 0.000003 -0.017802 -0.154805 -22.897800 -2.192510 6.469440 -0.000001 -176.253000 31.111500 158.058000 -39.081100 -0.002282 -0.040193 0.037066 -0.048822 34.675100 -40.985400 0.000008 0.000006 8.158440 -2.512900 -61.412700 -11.754300 -0.000006 -0.000006 -0.014950 -0.137502 -22.183100
